<mxfile host="65bd71144e">
    <diagram id="l_3EztwkF13Zctmzr-sn" name="Page-1">
        <mxGraphModel dx="2000" dy="1084" grid="1" gridSize="10" guides="1" tooltips="1" connect="1" arrows="1" fold="1" page="1" pageScale="1" pageWidth="827" pageHeight="1169" math="0" shadow="0">
            <root>
                <mxCell id="0"/>
                <mxCell id="1" parent="0"/>
                <mxCell id="50" value="" style="whiteSpace=wrap;html=1;shadow=0;dashed=1;dashPattern=1 1;strokeWidth=5;strokeColor=#64D1ED;" parent="1" vertex="1">
                    <mxGeometry x="70" y="60" width="1100" height="370" as="geometry"/>
                </mxCell>
                <mxCell id="58" value="Spoke 1 VNET" style="verticalLabelPosition=bottom;html=1;verticalAlign=top;align=center;strokeColor=none;fillColor=#00BEF2;shape=mxgraph.azure.virtual_network;pointerEvents=1;shadow=0;" parent="1" vertex="1">
                    <mxGeometry x="1080" y="372" width="50" height="27.500000000000004" as="geometry"/>
                </mxCell>
                <mxCell id="59" value="Peering" style="aspect=fixed;html=1;points=[];align=center;image;fontSize=12;image=img/lib/azure2/networking/Bastions.svg;shadow=0;" parent="1" vertex="1">
                    <mxGeometry x="864" y="432" width="57.99999999999999" height="68" as="geometry"/>
                </mxCell>
                <mxCell id="69" value="Infrastructure Subnet" style="points=[[0,0],[0.25,0],[0.5,0],[0.75,0],[1,0],[1,0.25],[1,0.5],[1,0.75],[1,1],[0.75,1],[0.5,1],[0.25,1],[0,1],[0,0.75],[0,0.5],[0,0.25]];outlineConnect=0;gradientColor=none;html=1;whiteSpace=wrap;fontSize=12;fontStyle=0;container=1;pointerEvents=0;collapsible=0;recursiveResize=0;shape=mxgraph.aws4.group;grIcon=mxgraph.aws4.group_security_group;grStroke=0;strokeColor=#147EBA;fillColor=#E6F2F8;verticalAlign=top;align=right;spacingLeft=30;fontColor=#147EBA;dashed=0;shadow=0;labelPosition=center;verticalLabelPosition=middle;flipH=1;spacingRight=34;" parent="1" vertex="1">
                    <mxGeometry x="300" y="90" width="590" height="319" as="geometry"/>
                </mxCell>
                <mxCell id="96" value="Azure Container&lt;br&gt;App Environment" style="aspect=fixed;html=1;points=[];align=center;image;fontSize=12;image=img/lib/azure2/other/Container_App_Environments.svg;shadow=0;" vertex="1" parent="69">
                    <mxGeometry x="20" y="48.5" width="68" height="68" as="geometry"/>
                </mxCell>
                <mxCell id="133" value="LoadBalancer" style="sketch=0;aspect=fixed;html=1;points=[];align=center;image;fontSize=12;image=img/lib/mscae/Load_Balancer_feature.svg;perimeterSpacing=5;imageBorder=none;" vertex="1" parent="69">
                    <mxGeometry x="499" y="42.5" width="50" height="50" as="geometry"/>
                </mxCell>
                <mxCell id="124" value="routetable" style="aspect=fixed;points=[];align=center;image;fontSize=12;image=img/lib/mscae/UserDefinedRoute.svg;shadow=0;html=1;spacingTop=6;perimeterSpacing=30;" vertex="1" parent="69">
                    <mxGeometry x="54" y="200" width="50" height="50" as="geometry"/>
                </mxCell>
                <mxCell id="123" value="frontend" style="aspect=fixed;html=1;points=[];align=center;image;fontSize=12;image=img/lib/azure2/other/Worker_Container_App.svg;perimeterSpacing=18;" vertex="1" parent="69">
                    <mxGeometry x="254" y="43.5" width="49.45" height="48" as="geometry"/>
                </mxCell>
                <mxCell id="126" style="edgeStyle=none;html=1;strokeWidth=3;fontSize=9;endSize=7;targetPerimeterSpacing=0;" edge="1" parent="69" source="133">
                    <mxGeometry relative="1" as="geometry">
                        <mxPoint x="469" y="67.5" as="sourcePoint"/>
                        <mxPoint x="316.4499999999998" y="67.49999999999955" as="targetPoint"/>
                    </mxGeometry>
                </mxCell>
                <mxCell id="163" value="" style="shape=image;verticalLabelPosition=bottom;verticalAlign=top;imageAspect=1;aspect=fixed;image=data:image/svg+xml,PHN2ZyB4bWxucz0iaHR0cDovL3d3dy53My5vcmcvMjAwMC9zdmciIHZpZXdCb3g9IjAgMCAzNjcgMjcwIj48ZyBmaWxsPSJub25lIiBmaWxsLXJ1bGU9ImV2ZW5vZGQiPjxwYXRoIGQ9Ik04OS43OTIgMTkzLjUwOUg2Mi45di04LjQ0NWMtMi41NjkgMy4yMjUtNS4xNjUgNS41NzUtNy43ODkgNy4wNTEtNC41OTEgMi41NjktOS44MSAzLjg1My0xNS42NiAzLjg1My05LjQ1NSAwLTE3Ljg3Mi0zLjI1Mi0yNS4yNTEtOS43NTZDNS40IDE3OC40NSAxIDE2OC4xNzUgMSAxNTUuMzg1YzAtMTMuMDA5IDQuNTEtMjMuMzk0IDEzLjUyOC0zMS4xNTUgNy4xNi02LjE3NiAxNS4zODYtOS4yNjUgMjQuNjc4LTkuMjY1IDUuNDExIDAgMTAuNDk0IDEuMTQ4IDE1LjI1IDMuNDQ0IDIuNzMyIDEuMzEyIDUuNTQ3IDMuNDcgOC40NDQgNi40NzdWNzAuMzY1aDI2Ljg5MnYxMjMuMTQ0ek02My43MiAxNTUuNDY3YzAtNC44MS0xLjY5NC04Ljg5Ni01LjA4My0xMi4yNTctMy4zOS0zLjM2Mi03LjQ4OC01LjA0Mi0xMi4yOTgtNS4wNDItNS4zNTcgMC05Ljc1NyAyLjAyMi0xMy4yIDYuMDY3LTIuNzg4IDMuMjgtNC4xODEgNy4wMjMtNC4xODEgMTEuMjMyczEuMzkzIDcuOTUzIDQuMTggMTEuMjMyYzMuMzkgNC4wNDUgNy43OSA2LjA2NyAxMy4yIDYuMDY3IDQuODY1IDAgOC45NzgtMS42NjcgMTIuMzQtNS4wMDEgMy4zNjEtMy4zMzQgNS4wNDItNy40MzQgNS4wNDItMTIuMjk4em0xMjYuOTMgMzguMDQyaC0yNi44OTJ2LTguNDQ1Yy0yLjU2OSAzLjIyNS01LjE2NSA1LjU3NS03Ljc4OCA3LjA1MS00LjU5MiAyLjU2OS05LjgxMSAzLjg1My0xNS42NiAzLjg1My05LjQ1NiAwLTE3Ljg3My0zLjI1Mi0yNS4yNTItOS43NTYtOC44LTcuNzYyLTEzLjItMTguMDM3LTEzLjItMzAuODI3IDAtMTMuMDA5IDQuNTEtMjMuMzk0IDEzLjUyOC0zMS4xNTUgNy4xNi02LjE3NiAxNS4zODYtOS4yNjUgMjQuNjc4LTkuMjY1IDUuNDExIDAgMTAuNDk0IDEuMTQ4IDE1LjI1IDMuNDQ0IDIuNzMzIDEuMzEyIDUuNTQ4IDMuNDcgOC40NDQgNi40Nzd2LTcuNDYxaDI2Ljg5MnY3Ni4wODR6bS0yNi4wNzItMzguMDQyYzAtNC44MS0xLjY5NC04Ljg5Ni01LjA4My0xMi4yNTctMy4zODktMy4zNjItNy40ODgtNS4wNDItMTIuMjk4LTUuMDQyLTUuMzU2IDAtOS43NTYgMi4wMjItMTMuMiA2LjA2Ny0yLjc4NyAzLjI4LTQuMTgxIDcuMDIzLTQuMTgxIDExLjIzMnMxLjM5NCA3Ljk1MyA0LjE4MSAxMS4yMzJjMy4zODkgNC4wNDUgNy43ODkgNi4wNjcgMTMuMiA2LjA2NyA0Ljg2NSAwIDguOTc4LTEuNjY3IDEyLjM0LTUuMDAxIDMuMzYtMy4zMzQgNS4wNDEtNy40MzQgNS4wNDEtMTIuMjk4em0xMjkuOTY0LjA4MmMwIDEzLjAwOS00LjUxIDIzLjM5My0xMy41MjggMzEuMTU1LTcuMTYgNi4xNzYtMTUuMzg2IDkuMjY0LTI0LjY3OCA5LjI2NC01LjQxMSAwLTEwLjQ5NC0xLjE0Ny0xNS4yNS0zLjQ0My0yLjczMi0xLjMxMi01LjU0Ny0zLjQ3LTguNDQ0LTYuNDc3djQ1LjUwM0gyMDUuNzVWMTE3LjQyNWgyNi44OTJ2OC40NDVjMi40MDUtMy4xNyA1LjAwMS01LjUyIDcuNzg5LTcuMDUxIDQuNTktMi41NyA5LjgxLTMuODU0IDE1LjY2LTMuODU0IDkuNDU1IDAgMTcuODcyIDMuMjUzIDI1LjI1MSA5Ljc1NyA4LjggNy43NjEgMTMuMiAxOC4wMzcgMTMuMiAzMC44Mjd6bS0yNy45NTgtLjA4MmMwLTQuMzE4LTEuMzY2LTguMDYyLTQuMDk5LTExLjIzMi0zLjQ0My00LjA0NS03Ljg3LTYuMDY3LTEzLjI4Mi02LjA2Ny00Ljg2NCAwLTguOTc3IDEuNjY3LTEyLjMzOSA1LTMuMzYxIDMuMzM1LTUuMDQyIDcuNDM0LTUuMDQyIDEyLjI5OSAwIDQuODEgMS42OTQgOC44OTUgNS4wODMgMTIuMjU3IDMuMzg5IDMuMzYxIDcuNDg4IDUuMDQyIDEyLjI5OCA1LjA0MiA1LjQxMSAwIDkuODExLTIuMDIyIDEzLjItNi4wNjcgMi43ODgtMy4yOCA0LjE4MS03LjAyMyA0LjE4MS0xMS4yMzJ6bTk3LjA4Ny0xMy4yYy0zLjc3MS0xLjgwNC03LjU5Ny0yLjcwNi0xMS40NzgtMi43MDYtOC44NTQgMC0xNC41OTMgMy42MDgtMTcuMjE3IDEwLjgyMy0uOTg0IDIuNjIzLTEuNDc2IDYuMTQ5LTEuNDc2IDEwLjU3NnYzMi41NDloLTI2Ljg5di03Ni4wODRoMjYuODl2MTIuNDYyYzIuODQyLTQuNDI3IDUuOTAzLTcuNjI1IDkuMTgzLTkuNTkyIDQuNDI3LTIuNjI0IDkuNjc0LTMuOTM2IDE1Ljc0MS0zLjkzNiAxLjQyMSAwIDMuMTcuMDgyIDUuMjQ3LjI0NnYyNS42NjJ6IiBmaWxsPSIjMEQyMTkyIi8+PHBhdGggZmlsbD0iIzBEMjE5MiIgZmlsbC1ydWxlPSJub256ZXJvIiBkPSJNMjA1LjUzOCAxOTQuMDYyaDI3LjA3N2wyLjMzMiA2My41NzItMTUuODcgMTEuMTItMTUuODctMTEuMTJ6Ii8+PHJlY3QgZmlsbD0iIzBEMjE5MiIgZmlsbC1ydWxlPSJub256ZXJvIiB4PSIxNDQuODI5IiB5PSIyLjI3OSIgd2lkdGg9IjEwMi43MjMiIGhlaWdodD0iNzIuMjk0IiByeD0iMiIvPjxwYXRoIGZpbGw9IiNGRkYiIGZpbGwtcnVsZT0ibm9uemVybyIgb3BhY2l0eT0iLjA4IiBkPSJNMTQ0LjgyOSAyLjI3OWgzNy45OTh2NzIuMjk0aC0zNy45OTh6Ii8+PHJlY3QgZmlsbD0iIzBEMjE5MiIgZmlsbC1ydWxlPSJub256ZXJvIiB4PSIxMTIuMzkxIiB5PSI2OS45MDkiIHdpZHRoPSIxNjYuMjQ4IiBoZWlnaHQ9IjE3LjM1MSIgcng9IjMuNzIiLz48cGF0aCBmaWxsPSIjRkZGIiBmaWxsLXJ1bGU9Im5vbnplcm8iIG9wYWNpdHk9Ii4wOCIgZD0iTTExMi4zOTEgNjkuOTA5aDUxLjQzOHYyMS4zNTVoLTUxLjQzOHoiLz48L2c+PC9zdmc+;dashed=1;dashPattern=1 1;sketch=0;strokeColor=#64D1ED;strokeWidth=5;fontSize=9;gradientColor=none;html=1;imageBorder=none;imageBackground=default;" vertex="1" parent="69">
                    <mxGeometry x="204" y="110" width="50" height="50" as="geometry"/>
                </mxCell>
                <mxCell id="75" value="Application Gateway Subnet" style="points=[[0,0],[0.25,0],[0.5,0],[0.75,0],[1,0],[1,0.25],[1,0.5],[1,0.75],[1,1],[0.75,1],[0.5,1],[0.25,1],[0,1],[0,0.75],[0,0.5],[0,0.25]];outlineConnect=0;gradientColor=none;html=1;whiteSpace=wrap;fontSize=12;fontStyle=0;container=1;pointerEvents=0;collapsible=0;recursiveResize=0;shape=mxgraph.aws4.group;grIcon=mxgraph.aws4.group_security_group;grStroke=0;strokeColor=#147EBA;fillColor=#E6F2F8;verticalAlign=top;align=left;spacingLeft=30;fontColor=#147EBA;dashed=0;shadow=0;" parent="1" vertex="1">
                    <mxGeometry x="921" y="89" width="222" height="240" as="geometry"/>
                </mxCell>
                <mxCell id="77" value="Azure Application Gateway&#10;" style="shape=image;verticalLabelPosition=bottom;verticalAlign=top;imageAspect=1;aspect=fixed;image=data:image/svg+xml,PHN2ZyB4bWxucz0iaHR0cDovL3d3dy53My5vcmcvMjAwMC9zdmciIHZpZXdCb3g9IjAgMCAxOCAxOCI+PGRlZnM+PGxpbmVhckdyYWRpZW50IGlkPSJiIiB4MT0iOSIgeTE9IjE5LjQ1IiB4Mj0iOSIgeTI9Ii0uNjUiIGdyYWRpZW50VHJhbnNmb3JtPSJyb3RhdGUoNDUgOS4wMDMgOC45OTkpIiBncmFkaWVudFVuaXRzPSJ1c2VyU3BhY2VPblVzZSI+PHN0b3Agb2Zmc2V0PSIwIiBzdG9wLWNvbG9yPSIjNWU5NjI0Ii8+PHN0b3Agb2Zmc2V0PSIuMTQiIHN0b3AtY29sb3I9IiM2MjljMjUiLz48c3RvcCBvZmZzZXQ9IjEiIHN0b3AtY29sb3I9IiM3NmJjMmQiLz48L2xpbmVhckdyYWRpZW50PjxsaW5lYXJHcmFkaWVudCBpZD0iYSIgeDE9IjcuNTEiIHkxPSI2LjM5IiB4Mj0iNy41IiB5Mj0iNS4xMSIgZ3JhZGllbnRVbml0cz0idXNlclNwYWNlT25Vc2UiPjxzdG9wIG9mZnNldD0iMCIgc3RvcC1jb2xvcj0iI2NjYyIvPjxzdG9wIG9mZnNldD0iLjEyIiBzdG9wLWNvbG9yPSIjZDdkN2Q3Ii8+PHN0b3Agb2Zmc2V0PSIuNDIiIHN0b3AtY29sb3I9IiNlYmViZWIiLz48c3RvcCBvZmZzZXQ9Ii43MiIgc3RvcC1jb2xvcj0iI2Y4ZjhmOCIvPjxzdG9wIG9mZnNldD0iMSIgc3RvcC1jb2xvcj0iI2ZjZmNmYyIvPjwvbGluZWFyR3JhZGllbnQ+PGxpbmVhckdyYWRpZW50IGlkPSJjIiB4MT0iOS4zNyIgeTE9IjcuNjciIHgyPSI5LjM3IiB5Mj0iNi41MiIgaHJlZj0iI2EiLz48L2RlZnM+PHJlY3QgeD0iMi43IiB5PSIyLjciIHdpZHRoPSIxMi42IiBoZWlnaHQ9IjEyLjYiIHJ4PSIuNTgiIHRyYW5zZm9ybT0icm90YXRlKC00NSA4Ljk5OSA5LjAwMykiIGZpbGw9InVybCgjYikiLz48ZyBmaWxsPSIjZmZmIj48cGF0aCBkPSJNMTAuOTMgMTAuNTRoMi44OWEuMTEuMTEgMCAwMC4xMS0uMTFWNy41NGEuMS4xIDAgMDAtLjE4LS4wN2wtLjguNzl2LjA2YS4xMS4xMSAwIDAxLS4xNSAwTDkuMjcgNC44M2EuMTEuMTEgMCAwMC0uMTUgMGwtLjkuOWEuMTEuMTEgMCAwMDAgLjE1bDMuNDkgMy40OGEuMTEuMTEgMCAwMTAgLjE1bC0uMDYuMDUtLjc5LjhhLjEuMSAwIDAwLjA3LjE4eiIvPjxwYXRoIGQ9Ik02Ljg3IDEwLjU0SDRhLjExLjExIDAgMDEtLjEtLjExVjcuNTRhLjEuMSAwIDAxLjE4LS4wN2wuNzkuNzkuMDYuMDZhLjEuMSAwIDAwLjE0IDBsMy40Ny0zLjQ5YS4xMS4xMSAwIDAxLjE1IDBsLjg5LjlhLjA5LjA5IDAgMDEwIC4xNUw2LjEgOS4zNmEuMTEuMTEgMCAwMDAgLjE1bC4wNS4wNS44LjhhLjExLjExIDAgMDEtLjA4LjE4eiIvPjxwYXRoIGQ9Ik02Ljc4IDEzLjE2bDIgMmEuMTEuMTEgMCAwMC4xNSAwbDItMmEuMS4xIDAgMDAtLjA3LS4xOEg5Ljc0YS4xMS4xMSAwIDAxLS4xMS0uMVY4YS4xLjEgMCAwMC0uMS0uMTFIOC4yNmEuMS4xIDAgMDAtLjEuMTF2NC45M2EuMTEuMTEgMCAwMS0uMTEuMWgtMS4yYS4xLjEgMCAwMC0uMDcuMTN6Ii8+PC9nPjxwYXRoIGQ9Ik0xMC42OCA3Ljc1QTIuNzYgMi43NiAwIDExNy4zIDMuMzlhMi43NiAyLjc2IDAgMDEzLjM1IDQuMzgiIGZpbGw9IiMwMDc4ZDQiLz48Y2lyY2xlIGN4PSI3LjUiIGN5PSI1LjQ4IiByPSIuODgiIGZpbGw9InVybCgjYSkiLz48cGF0aCBkPSJNNi42MiA3YTIgMiAwIDAwLjIuM2MuMDYuMDguMTIuMTQuMTguMjFhNi4xNiA2LjE2IDAgMDEuMzUtMS4xMi44NS44NSAwIDAxLS40Ni0uMjQgNS42MiA1LjYyIDAgMDAtLjI3Ljg1em0uNTktMi4zNWE0LjIxIDQuMjEgMCAwMS0uMjMtMSAzLjI3IDMuMjcgMCAwMC0uMzUuNDggNC41NSA0LjU1IDAgMDAuMTguNzYuODEuODEgMCAwMS40LS4yNHptLjk0IDEuNDNhLjg5Ljg5IDAgMDEtLjQ4LjI3IDMuMjEgMy4yMSAwIDAwLjQ3LjQxIDMuNTkgMy41OSAwIDAwLjY2LjQxdi0uMDhhLjU4LjU4IDAgMDEuMi0uNDEgMy40NiAzLjQ2IDAgMDEtLjg1LS42em0yLjY4IDEuMDhhMy43NCAzLjc0IDAgMDEtLjg5LS4xLjU2LjU2IDAgMDEtLjE2LjQgNCA0IDAgMDAxLjEuMDggMi4xNiAyLjE2IDAgMDAuMzctLjQzeiIgb3BhY2l0eT0iLjU1IiBmaWxsPSIjZjJmMmYyIi8+PGNpcmNsZSBjeD0iOS4zNyIgY3k9IjcuMDkiIHI9Ii41NyIgZmlsbD0idXJsKCNjKSIvPjxjaXJjbGUgY3g9IjEwLjY4IiBjeT0iNS42NyIgcj0iLjYxIiBmaWxsPSIjZjJmMmYyIi8+PHBhdGggZD0iTTkuMjIgNC4zMmE0LjQzIDQuNDMgMCAwMTEuOTItLjQ3IDMgMyAwIDAwLS40OC0uNDcgNC45IDQuOSAwIDAwLTEuNTIuMzYgMi45MSAyLjkxIDAgMDAtLjMuMTdBNS40NSA1LjQ1IDAgMDE4LjE5IDNhMi42NyAyLjY3IDAgMDAtLjM2LjE0IDYuMSA2LjEgMCAwMC42NyAxIDQuMDUgNC4wNSAwIDAwLS42OC41Ni44OS44OSAwIDAxLjQzLjMgMy40NyAzLjQ3IDAgMDEuNjMtLjQ5IDEwLjI1IDEwLjI1IDAgMDAxLjE5IDEgLjU3LjU3IDAgMDEuMi0uMzIgNy44MSA3LjgxIDAgMDEtMS4wNS0uODd6TTExLjYgNmgtLjE4bC0uMTEtLjA2YS41Mi41MiAwIDAxLS4yLjNsLjEyLjA3YS40MS40MSAwIDAwLjExLjA3bC4yOC4xNWEyLjM3IDIuMzcgMCAwMC4wOS0uMzZ6IiBvcGFjaXR5PSIuNTUiIGZpbGw9IiNmMmYyZjIiLz48Y2lyY2xlIGN4PSI3LjUiIGN5PSI1LjQ4IiByPSIuODgiIGZpbGw9IiNmMmYyZjIiLz48Y2lyY2xlIGN4PSI5LjM3IiBjeT0iNy4wOSIgcj0iLjU3IiBmaWxsPSIjZjJmMmYyIi8+PC9zdmc+;shadow=0;" parent="75" vertex="1">
                    <mxGeometry x="81.5" y="40" width="59" height="59" as="geometry"/>
                </mxCell>
                <mxCell id="97" value="Public IP" style="sketch=0;aspect=fixed;html=1;points=[];align=center;image;fontSize=12;image=img/lib/mscae/App_Service_IPAddress.svg;dashed=1;dashPattern=1 1;strokeColor=#64D1ED;strokeWidth=12;gradientColor=none;perimeterSpacing=23;" vertex="1" parent="1">
                    <mxGeometry x="1001" y="239" width="59.52" height="50" as="geometry"/>
                </mxCell>
                <mxCell id="106" value="Private Link. Subnet" style="points=[[0,0],[0.25,0],[0.5,0],[0.75,0],[1,0],[1,0.25],[1,0.5],[1,0.75],[1,1],[0.75,1],[0.5,1],[0.25,1],[0,1],[0,0.75],[0,0.5],[0,0.25]];outlineConnect=0;gradientColor=none;html=1;whiteSpace=wrap;fontSize=12;fontStyle=0;container=1;pointerEvents=0;collapsible=0;recursiveResize=0;shape=mxgraph.aws4.group;grIcon=mxgraph.aws4.group_security_group;grStroke=0;strokeColor=#147EBA;fillColor=#E6F2F8;verticalAlign=top;align=left;spacingLeft=30;fontColor=#147EBA;dashed=0;shadow=0;" vertex="1" parent="1">
                    <mxGeometry x="102" y="90" width="168" height="310" as="geometry"/>
                </mxCell>
                <mxCell id="108" value="Azure Container Registry" style="shape=image;verticalLabelPosition=bottom;verticalAlign=top;imageAspect=1;aspect=fixed;image=data:image/svg+xml,PHN2ZyBkYXRhLW5hbWU9ImZsdWVudF9pY29ucyIgeG1sbnM9Imh0dHA6Ly93d3cudzMub3JnLzIwMDAvc3ZnIiB2aWV3Qm94PSIwIDAgMTggMTgiPjxkZWZzPjxsaW5lYXJHcmFkaWVudCBpZD0iYSIgeDE9IjguNjciIHkxPSIxNy41NCIgeDI9IjguNjciIHkyPSItMS4xOSIgZ3JhZGllbnRVbml0cz0idXNlclNwYWNlT25Vc2UiPjxzdG9wIG9mZnNldD0iMCIgc3RvcC1jb2xvcj0iIzAwNzhkNCIvPjxzdG9wIG9mZnNldD0iLjE2IiBzdG9wLWNvbG9yPSIjMTM4MGRhIi8+PHN0b3Agb2Zmc2V0PSIuNTMiIHN0b3AtY29sb3I9IiMzYzkxZTUiLz48c3RvcCBvZmZzZXQ9Ii44MiIgc3RvcC1jb2xvcj0iIzU1OWNlYyIvPjxzdG9wIG9mZnNldD0iMSIgc3RvcC1jb2xvcj0iIzVlYTBlZiIvPjwvbGluZWFyR3JhZGllbnQ+PGxpbmVhckdyYWRpZW50IGlkPSJiIiB4MT0iMTIuOTYiIHkxPSIxMC41IiB4Mj0iMTIuOTYiIHkyPSIxMi45MiIgZ3JhZGllbnRVbml0cz0idXNlclNwYWNlT25Vc2UiPjxzdG9wIG9mZnNldD0iMCIgc3RvcC1jb2xvcj0iIzMzMzEzMiIvPjxzdG9wIG9mZnNldD0iMSIgc3RvcC1jb2xvcj0iIzViNWE1YyIvPjwvbGluZWFyR3JhZGllbnQ+PC9kZWZzPjxwYXRoIGQ9Ik0xNi4yMiA3LjQ0QTQuMTkgNC4xOSAwIDAwMTQgNi4zMmE0LjkxIDQuOTEgMCAwMC01LjEtNC43IDUuMDcgNS4wNyAwIDAwLTQuODQgMy4yOUE0LjYyIDQuNjIgMCAwMDAgOS4zOWE0LjczIDQuNzMgMCAwMDQuODkgNC41NGg4LjU2YTQgNCAwIDAwMy45Mi0zLjgxIDMuNjcgMy42NyAwIDAwLTEuMTQtMi42MyIgZmlsbD0idXJsKCNhKSIvPjxwYXRoIGZpbGw9IiM3Njc2NzYiIGQ9Ik0xMC4wNyA2LjIybC4wMSA0LjI4IDcuOTEgMS42OFY5LjJsLTcuOTItMi45OHoiLz48cGF0aCBmaWxsPSIjOTk5IiBkPSJNMTAuMDcgNi4yMmwtMi4xNCAxLjN2My45OGwyLjE1LTEiLz48cGF0aCBmaWxsPSIjYTNhM2EzIiBkPSJNMTMuNjggMTAuNTZsLjcyLjJWOC40M2wtLjcyLS4yNXYyLjM4em0tLjcyLTIuNjFsLS43Mi0uMjZ2Mi40OWwuNzIuMlY3Ljk1em0yLjE2IDNsLjcuMTkuMDItMi4yMi0uNzItLjI0djIuMjd6bS00LjMxLTEuMTRsLjcyLjE4VjcuNDZsLS43Mi0uMjR2Mi41OXptNi40Ni0uNGwtLjcyLS4yNXYyLjE3bC43Mi4yVjkuNDF6Ii8+PHBhdGggZGF0YS1uYW1lPSJQYXRoIDE1ODgiIGQ9Ik04LjY2IDEwLjQzbC0uMzYuMjFWNy44MWwuMzYtLjE5em0uNzEtMy4yMkw5IDcuNDV2Mi43NWwuMzctLjJ6IiBmaWxsPSIjYjNiM2IzIi8+PHBhdGggZmlsbD0idXJsKCNiKSIgZD0iTTE3Ljk5IDEyLjE4bC0yLjE2Ljc0LTcuOS0xLjQyIDIuMTUtMSA3LjkxIDEuNjh6Ii8+PHBhdGggZmlsbD0iIzc2NzY3NiIgZD0iTTE3Ljk5IDE1LjIzbC03Ljk1IDEuNTEuMDQtNS41OSA3LjkxIDEuNDd2Mi42MXoiLz48cGF0aCBmaWxsPSIjYTNhM2EzIiBkPSJNMTAuODEgMTUuODJ2LTMuNTVsLjcyLjA5djMuMzRsLS43Mi4xMnptMi4xNS0uMzZsLS43Mi4xM3YtMy4xNGwuNzIuMTF2Mi45em0uNzItLjExdi0yLjcybC43Mi4wOXYyLjVsLS43Mi4xM3ptMi4xNS0uMzhsLS43MS4xM3YtMi4yOWwuNzEuMTF2Mi4wNXptMS40Ni0uMjNsLS43NC4xM3YtMS44OGwuNjkuMDkuMDUgMS42NnoiLz48cGF0aCBkYXRhLW5hbWU9IlBhdGggMTU4OSIgZD0iTTcuOTMgMTUuNDZWMTIuMmwyLjE2LTF2NS42eiIgZmlsbD0iIzk5OSIvPjxwYXRoIGRhdGEtbmFtZT0iUGF0aCAxNTkwIiBkPSJNOC42MSAxNS40NWwtLjMyLS4xNnYtMi43NmwuMzItLjE1ek05LjM4IDEybC0uMzguMTl2My40OGwuMzcuMTlWMTJ6IiBmaWxsPSIjYjNiM2IzIi8+PC9zdmc+;dashed=1;dashPattern=1 1;sketch=0;strokeColor=#64D1ED;strokeWidth=5;fontSize=12;gradientColor=none;html=1;" vertex="1" parent="106">
                    <mxGeometry x="58" y="200" width="50" height="50" as="geometry"/>
                </mxCell>
                <mxCell id="109" value="Azure Container&amp;nbsp;&lt;br&gt;Registry &lt;br&gt;Private Link Endpoint" style="shape=image;verticalLabelPosition=bottom;verticalAlign=top;imageAspect=1;aspect=fixed;image=data:image/svg+xml,PHN2ZyB4bWxucz0iaHR0cDovL3d3dy53My5vcmcvMjAwMC9zdmciIHZpZXdCb3g9IjAgMCA1MCA1MCI+PGRlZnM+PGxpbmVhckdyYWRpZW50IGlkPSJhIiB4MT0iMjEuNTIzIiB5MT0iMjUiIHgyPSIyMS41MjMiIHkyPSIxMyIgZ3JhZGllbnRUcmFuc2Zvcm09Im1hdHJpeCgxIDAgMCAtMSAwIDUwKSIgZ3JhZGllbnRVbml0cz0idXNlclNwYWNlT25Vc2UiPjxzdG9wIG9mZnNldD0iLjIzIiBzdG9wLWNvbG9yPSIjNWVhMGVmIi8+PHN0b3Agb2Zmc2V0PSIuMzIiIHN0b3AtY29sb3I9IiM1YjlmZWUiLz48c3RvcCBvZmZzZXQ9Ii40OCIgc3RvcC1jb2xvcj0iIzUwOWFlYiIvPjxzdG9wIG9mZnNldD0iLjU3IiBzdG9wLWNvbG9yPSIjM2Y5MmU2Ii8+PHN0b3Agb2Zmc2V0PSIuNzUiIHN0b3AtY29sb3I9IiMyNjg4ZGYiLz48c3RvcCBvZmZzZXQ9Ii45MyIgc3RvcC1jb2xvcj0iIzEyN2ZkOSIvPjwvbGluZWFyR3JhZGllbnQ+PGxpbmVhckdyYWRpZW50IGlkPSJiIiB4MT0iMjcuNDc3IiB5MT0iMjAiIHgyPSIyNy40NzciIHkyPSI4IiBncmFkaWVudFRyYW5zZm9ybT0ibWF0cml4KDEgMCAwIC0xIDAgNTApIiBncmFkaWVudFVuaXRzPSJ1c2VyU3BhY2VPblVzZSI+PHN0b3Agb2Zmc2V0PSIuMDIiIHN0b3AtY29sb3I9IiM1ZWEwZWYiLz48c3RvcCBvZmZzZXQ9Ii4xNCIgc3RvcC1jb2xvcj0iIzViOWZlZSIvPjxzdG9wIG9mZnNldD0iLjIzIiBzdG9wLWNvbG9yPSIjNWI5ZmVlIi8+PHN0b3Agb2Zmc2V0PSIuMzQiIHN0b3AtY29sb3I9IiM1MDlhZWIiLz48c3RvcCBvZmZzZXQ9Ii40NCIgc3RvcC1jb2xvcj0iIzNmOTJlNiIvPjxzdG9wIG9mZnNldD0iLjYzIiBzdG9wLWNvbG9yPSIjMjY4OGRmIi8+PHN0b3Agb2Zmc2V0PSIuOTMiIHN0b3AtY29sb3I9IiMxMjdmZDkiLz48L2xpbmVhckdyYWRpZW50PjwvZGVmcz48cGF0aCBkPSJNMjMgNy4xaDNWMjZoLTN6IiBmaWxsPSIjN2E3YTdhIi8+PHBhdGggZD0iTTI4LjkgNi41YTQuNCA0LjQgMCAxMS00LjQtNC40IDQuNCA0LjQgMCAwMTQuNCA0LjR6IiBmaWxsPSIjMTQ5MGRmIi8+PHBhdGggZD0iTTIzLjkgMjVoLTQuOGE2IDYgMCAwMC0uOTMgMTEuOTIgNi40MjcgNi40MjcgMCAwMS4wNi0yLjIzIDMuNzkgMy43OSAwIDAxLjg3LTcuNDloNC44YTMuOCAzLjggMCAxMTAgNy42aC0xLjMyYTIuODY1IDIuODY1IDAgMDAtLjI4IDEuMiAyLjc4MyAyLjc4MyAwIDAwLjE5IDFoMS40MWE2IDYgMCAwMDAtMTJ6IiBmaWxsPSJ1cmwoI2EpIi8+PHBhdGggZD0iTTMwLjgzIDMwLjA4YTYuOTEgNi45MSAwIDAxLjA3LjkyIDYuMjY2IDYuMjY2IDAgMDEtLjEzIDEuMzEgMy43OSAzLjc5IDAgMDEtLjg3IDcuNDloLTQuOGEzLjggMy44IDAgMDEwLTcuNmgxLjMyYTIuODE2IDIuODE2IDAgMDAuMjgtMS4yIDIuNzgzIDIuNzgzIDAgMDAtLjE5LTFIMjUuMWE2IDYgMCAwMDAgMTJoNC44YTYgNiAwIDAwLjkzLTExLjkyeiIgZmlsbD0idXJsKCNiKSIvPjxwYXRoIGQ9Ik0xNS44NiA0NC41MmwtMS4xIDEuMTFhLjc1MS43NTEgMCAwMS0xLjA2IDBMMS4zOSAzMy4zNWExLjUxIDEuNTEgMCAwMTAtMi4xM2wxLjExLTEuMSAxMy4zNiAxMy4zNGEuNzM5LjczOSAwIDAxLjAxNCAxLjA0NnoiIGZpbGw9IiM1MGU2ZmYiLz48cGF0aCBkPSJNMTQuNTMgMTkuMTJsMS4yMyAxLjIzYS43NTEuNzUxIDAgMDEwIDEuMDZMMi42MiAzNC41OWwtMS4yMy0xLjIyYTEuNTEgMS41MSAwIDAxMC0yLjEzbDEyLjA4LTEyLjEyYS43NTEuNzUxIDAgMDExLjA2IDB6IiBmaWxsPSIjMTQ5MGRmIi8+PHBhdGggZD0iTTM0LjEzIDQ1LjM5YS43MzkuNzM5IDAgMDEtLjAxNC0xLjA0NmwuMDE0LS4wMTRMNDcuNSAzMWwxLjExIDEuMTFhMS41MSAxLjUxIDAgMDEwIDIuMTNMMzYuMjkgNDYuNWEuNzM5LjczOSAwIDAxLTEuMDQ2LjAxNGwtLjAxNC0uMDE0eiIgZmlsbD0iIzUwZTZmZiIvPjxwYXRoIGQ9Ik0zNi41MiAyMGwxMi4wOSAxMi4xMmExLjUgMS41IDAgMDEwIDIuMTJsLTEuMjMgMS4yMy0xMy4xNS0xMy4xOGEuNzcxLjc3MSAwIDAxMC0xLjA3TDM1LjQ2IDIwYS43NTEuNzUxIDAgMDExLjA2IDB6IiBmaWxsPSIjMTQ5MGRmIi8+PC9zdmc+;dashed=1;dashPattern=1 1;sketch=0;strokeColor=#64D1ED;strokeWidth=5;fontSize=13;gradientColor=none;html=1;" vertex="1" parent="106">
                    <mxGeometry x="59" y="60" width="49" height="49" as="geometry"/>
                </mxCell>
                <mxCell id="116" value="" style="whiteSpace=wrap;html=1;shadow=0;dashed=1;dashPattern=1 1;strokeWidth=5;strokeColor=#64D1ED;" vertex="1" parent="1">
                    <mxGeometry x="209" y="480" width="651" height="250" as="geometry"/>
                </mxCell>
                <mxCell id="119" value="FirewallSubnet" style="points=[[0,0],[0.25,0],[0.5,0],[0.75,0],[1,0],[1,0.25],[1,0.5],[1,0.75],[1,1],[0.75,1],[0.5,1],[0.25,1],[0,1],[0,0.75],[0,0.5],[0,0.25]];outlineConnect=0;gradientColor=none;html=1;whiteSpace=wrap;fontSize=12;fontStyle=0;container=1;pointerEvents=0;collapsible=0;recursiveResize=0;shape=mxgraph.aws4.group;grIcon=mxgraph.aws4.group_security_group;grStroke=0;strokeColor=#147EBA;fillColor=#E6F2F8;verticalAlign=top;align=left;spacingLeft=30;fontColor=#147EBA;dashed=0;shadow=0;" vertex="1" parent="1">
                    <mxGeometry x="250" y="510" width="232" height="190" as="geometry"/>
                </mxCell>
                <mxCell id="120" value="Azure Firewall" style="aspect=fixed;html=1;points=[];align=center;image;fontSize=12;image=img/lib/azure2/networking/Web_Application_Firewall_Policies_WAF.svg;shadow=0;strokeWidth=3;dashed=1;" vertex="1" parent="119">
                    <mxGeometry x="95" y="72" width="68" height="68" as="geometry"/>
                </mxCell>
                <mxCell id="141" value="NextHop: VirtualAppliance" style="edgeStyle=none;html=1;strokeWidth=3;fontSize=16;endSize=7;targetPerimeterSpacing=0;" edge="1" parent="1" source="124" target="120">
                    <mxGeometry relative="1" as="geometry"/>
                </mxCell>
                <mxCell id="121" value="backend" style="aspect=fixed;html=1;points=[];align=center;image;fontSize=12;image=img/lib/azure2/other/Worker_Container_App.svg;perimeterSpacing=25;" vertex="1" parent="1">
                    <mxGeometry x="461" y="132" width="49.45" height="48" as="geometry"/>
                </mxCell>
                <mxCell id="132" value="pull" style="edgeStyle=none;html=1;strokeWidth=3;fontSize=16;endSize=7;targetPerimeterSpacing=0;" edge="1" parent="1" source="109" target="96">
                    <mxGeometry relative="1" as="geometry"/>
                </mxCell>
                <mxCell id="135" value="" style="whiteSpace=wrap;html=1;dashed=1;dashPattern=1 1;sketch=0;strokeColor=#64D1ED;strokeWidth=5;fontSize=16;gradientColor=none;" vertex="1" parent="1">
                    <mxGeometry x="655" y="127.5" width="103" height="220.5" as="geometry"/>
                </mxCell>
                <mxCell id="136" value="Envoy Router" style="shape=image;verticalLabelPosition=bottom;verticalAlign=top;imageAspect=1;aspect=fixed;image=data:image/svg+xml,PHN2ZyB4bWxucz0iaHR0cDovL3d3dy53My5vcmcvMjAwMC9zdmciIHZpZXdCb3g9Ii00LjIxIDQ5LjU0IDQzOS45MiAzMzIuNjciPjxwYXRoIGZpbGw9IiNiMzFhYWIiIGQ9Ik0xMDkuOCAyMTAuNmwuNiAyNS40IDI2LjggMTYuNi0uNi0yNS40em02NS40IDEwNS44bC0uNi0yNC45LTIzLjUtMTQuNmMtLjMtLjItLjctLjUtMS0uN2wuNiAyNSAyNC41IDE1LjJ6TTkxLjUgMzUwbC02MS4zLTM4LTEuNS02My43IDMwLjEtMTMtLjYtMjUuNS00OCAyMC43Yy0zLjcgMS42LTUuOSA1LTUuOCA4LjlsMS44IDc2LjVjLjEgMy45IDIuNSA3LjggNi4zIDEwLjJMODYgMzcxLjdjMy40IDIuMSA3LjYgMi43IDExIDEuNi40LS4xLjctLjIgMS0uNGw0NS4xLTE5LjQtMjQuNS0xNS4yTDkxLjUgMzUweiIvPjxwYXRoIGZpbGw9IiNkMTYzY2UiIGQ9Ik0yODkuNiAyMDkuMWMtLjEtNC42LTIuOS05LjEtNy4zLTExLjlMMTkzIDE0MS45bC0yLjggMS4yLjYgMjYuOCA3MC43IDQzLjggMS43IDcxLjYgMjcgMTYuNyAxLjUtLjYtMi4xLTkyLjN6TTE4Mi43IDMzNC44bC04Mi45LTUxLjQtMi04Ni4zIDM3LjgtMTYuMy0uNy0yOS43LTU4LjcgMjUuM2MtNC4zIDEuOS02LjkgNS44LTYuOCAxMC40TDcxLjcgMjg4Yy4xIDQuNiAyLjkgOS4xIDcuMyAxMS44bDk3LjIgNjAuM2M0IDIuNSA4LjggMy4xIDEyLjkgMS45LjQtLjEuOC0uMyAxLjItLjVsNTcuNC0yNC43LTI4LjYtMTcuNy0zNi40IDE1Ljd6Ii8+PHBhdGggZmlsbD0iI2UxM2VhZiIgZD0iTTQxNS45IDEzOC4zTDI5MS4zIDYxYy00LjYtMi44LTEwLjEtMy42LTE0LjgtMi4xLS41LjEtLjkuMy0xLjQuNWwtMTIxLjYgNTIuNGMtNC45IDIuMS03LjkgNi42LTcuOCAxMS45bDMuMSAxMjkuNmMuMSA1LjMgMy4zIDEwLjQgOC40IDEzLjVMMjgxLjggMzQ0YzQuNiAyLjggMTAuMSAzLjYgMTQuNyAyLjEuNS0uMS45LS4zIDEuNC0uNWwxMjEuNi01Mi40YzQuOS0yLjEgNy45LTYuNyA3LjgtMTEuOWwtMy0xMjkuNmMtLjEtNS4xLTMuMy0xMC4zLTguNC0xMy40ek0yODkuMyAzMTUuMkwxODEgMjQ4LjFsLTIuNy0xMTIuNyAxMDUuNi00NS41TDM5Mi4yIDE1N2wyLjcgMTEyLjctMTA1LjYgNDUuNXoiLz48L3N2Zz4=;imageBorder=none;" vertex="1" parent="1">
                    <mxGeometry x="678.5" y="153" width="58" height="58" as="geometry"/>
                </mxCell>
                <mxCell id="137" value="Envoy Router" style="shape=image;verticalLabelPosition=bottom;verticalAlign=top;imageAspect=1;aspect=fixed;image=data:image/svg+xml,PHN2ZyB4bWxucz0iaHR0cDovL3d3dy53My5vcmcvMjAwMC9zdmciIHZpZXdCb3g9Ii00LjIxIDQ5LjU0IDQzOS45MiAzMzIuNjciPjxwYXRoIGZpbGw9IiNiMzFhYWIiIGQ9Ik0xMDkuOCAyMTAuNmwuNiAyNS40IDI2LjggMTYuNi0uNi0yNS40em02NS40IDEwNS44bC0uNi0yNC45LTIzLjUtMTQuNmMtLjMtLjItLjctLjUtMS0uN2wuNiAyNSAyNC41IDE1LjJ6TTkxLjUgMzUwbC02MS4zLTM4LTEuNS02My43IDMwLjEtMTMtLjYtMjUuNS00OCAyMC43Yy0zLjcgMS42LTUuOSA1LTUuOCA4LjlsMS44IDc2LjVjLjEgMy45IDIuNSA3LjggNi4zIDEwLjJMODYgMzcxLjdjMy40IDIuMSA3LjYgMi43IDExIDEuNi40LS4xLjctLjIgMS0uNGw0NS4xLTE5LjQtMjQuNS0xNS4yTDkxLjUgMzUweiIvPjxwYXRoIGZpbGw9IiNkMTYzY2UiIGQ9Ik0yODkuNiAyMDkuMWMtLjEtNC42LTIuOS05LjEtNy4zLTExLjlMMTkzIDE0MS45bC0yLjggMS4yLjYgMjYuOCA3MC43IDQzLjggMS43IDcxLjYgMjcgMTYuNyAxLjUtLjYtMi4xLTkyLjN6TTE4Mi43IDMzNC44bC04Mi45LTUxLjQtMi04Ni4zIDM3LjgtMTYuMy0uNy0yOS43LTU4LjcgMjUuM2MtNC4zIDEuOS02LjkgNS44LTYuOCAxMC40TDcxLjcgMjg4Yy4xIDQuNiAyLjkgOS4xIDcuMyAxMS44bDk3LjIgNjAuM2M0IDIuNSA4LjggMy4xIDEyLjkgMS45LjQtLjEuOC0uMyAxLjItLjVsNTcuNC0yNC43LTI4LjYtMTcuNy0zNi40IDE1Ljd6Ii8+PHBhdGggZmlsbD0iI2UxM2VhZiIgZD0iTTQxNS45IDEzOC4zTDI5MS4zIDYxYy00LjYtMi44LTEwLjEtMy42LTE0LjgtMi4xLS41LjEtLjkuMy0xLjQuNWwtMTIxLjYgNTIuNGMtNC45IDIuMS03LjkgNi42LTcuOCAxMS45bDMuMSAxMjkuNmMuMSA1LjMgMy4zIDEwLjQgOC40IDEzLjVMMjgxLjggMzQ0YzQuNiAyLjggMTAuMSAzLjYgMTQuNyAyLjEuNS0uMS45LS4zIDEuNC0uNWwxMjEuNi01Mi40YzQuOS0yLjEgNy45LTYuNyA3LjgtMTEuOWwtMy0xMjkuNmMtLjEtNS4xLTMuMy0xMC4zLTguNC0xMy40ek0yODkuMyAzMTUuMkwxODEgMjQ4LjFsLTIuNy0xMTIuNyAxMDUuNi00NS41TDM5Mi4yIDE1N2wyLjcgMTEyLjctMTA1LjYgNDUuNXoiLz48L3N2Zz4=;imageBorder=none;" vertex="1" parent="1">
                    <mxGeometry x="679.45" y="247" width="58" height="58" as="geometry"/>
                </mxCell>
                <mxCell id="139" value="Internet" style="aspect=fixed;perimeter=ellipsePerimeter;html=1;align=center;shadow=0;dashed=0;spacingTop=3;image;image=img/lib/active_directory/internet_cloud.svg;dashPattern=1 1;sketch=0;strokeColor=#64D1ED;strokeWidth=5;fontSize=16;gradientColor=none;" vertex="1" parent="1">
                    <mxGeometry x="80" y="575" width="81" height="51.03" as="geometry"/>
                </mxCell>
                <mxCell id="142" style="edgeStyle=none;html=1;entryX=1;entryY=0.75;entryDx=0;entryDy=0;strokeWidth=3;fontSize=16;endSize=7;targetPerimeterSpacing=0;" edge="1" parent="1" source="120" target="139">
                    <mxGeometry relative="1" as="geometry"/>
                </mxCell>
                <mxCell id="148" style="edgeStyle=none;html=1;strokeWidth=3;fontSize=16;endSize=7;targetPerimeterSpacing=0;" edge="1" parent="1" source="143" target="97">
                    <mxGeometry relative="1" as="geometry"/>
                </mxCell>
                <mxCell id="143" value="Client" style="verticalLabelPosition=bottom;sketch=0;aspect=fixed;html=1;verticalAlign=top;strokeColor=none;align=center;outlineConnect=0;shape=mxgraph.citrix.laptop_2;dashed=1;dashPattern=1 1;strokeWidth=5;fontSize=16;gradientColor=none;" vertex="1" parent="1">
                    <mxGeometry x="994.12" y="512.63" width="75.77" height="56.5" as="geometry"/>
                </mxCell>
                <mxCell id="144" value="Private Resolver Inbound" style="points=[[0,0],[0.25,0],[0.5,0],[0.75,0],[1,0],[1,0.25],[1,0.5],[1,0.75],[1,1],[0.75,1],[0.5,1],[0.25,1],[0,1],[0,0.75],[0,0.5],[0,0.25]];outlineConnect=0;gradientColor=none;html=1;whiteSpace=wrap;fontSize=12;fontStyle=0;container=1;pointerEvents=0;collapsible=0;recursiveResize=0;shape=mxgraph.aws4.group;grIcon=mxgraph.aws4.group_security_group;grStroke=0;strokeColor=#147EBA;fillColor=#E6F2F8;verticalAlign=top;align=left;spacingLeft=30;fontColor=#147EBA;dashed=0;shadow=0;" vertex="1" parent="1">
                    <mxGeometry x="519" y="513.76" width="188" height="186.24" as="geometry"/>
                </mxCell>
                <mxCell id="145" value="Private DNS Resolver" style="aspect=fixed;html=1;points=[];align=center;image;fontSize=12;image=img/lib/azure2/networking/DNS_Private_Resolver.svg;shadow=0;" vertex="1" parent="144">
                    <mxGeometry x="60" y="65" width="68" height="60" as="geometry"/>
                </mxCell>
                <mxCell id="146" value="Hub VNET" style="verticalLabelPosition=bottom;html=1;verticalAlign=top;align=center;strokeColor=none;fillColor=#00BEF2;shape=mxgraph.azure.virtual_network;pointerEvents=1;shadow=0;" vertex="1" parent="1">
                    <mxGeometry x="790" y="510" width="50" height="27.500000000000004" as="geometry"/>
                </mxCell>
                <mxCell id="147" value="Azure Private DNS Zone" style="aspect=fixed;html=1;points=[];align=center;image;fontSize=12;image=img/lib/azure2/networking/DNS_Zones.svg;shadow=0;" vertex="1" parent="1">
                    <mxGeometry x="760" y="590" width="50" height="50" as="geometry"/>
                </mxCell>
                <mxCell id="150" style="edgeStyle=none;html=1;strokeWidth=3;fontSize=16;endSize=7;targetPerimeterSpacing=0;" edge="1" parent="1" source="149" target="145">
                    <mxGeometry relative="1" as="geometry"/>
                </mxCell>
                <mxCell id="149" value="" style="sketch=0;aspect=fixed;html=1;points=[];align=center;image;fontSize=12;image=img/lib/mscae/DNS.svg;dashed=1;dashPattern=1 1;strokeColor=#64D1ED;strokeWidth=5;gradientColor=none;" vertex="1" parent="1">
                    <mxGeometry x="941" y="360" width="40" height="40" as="geometry"/>
                </mxCell>
                <mxCell id="154" style="edgeStyle=none;html=1;strokeWidth=3;fontSize=16;endSize=7;targetPerimeterSpacing=0;" edge="1" parent="1">
                    <mxGeometry relative="1" as="geometry">
                        <mxPoint x="993.5" y="158.35817307692287" as="sourcePoint"/>
                        <mxPoint x="865" y="157.74038461538476" as="targetPoint"/>
                    </mxGeometry>
                </mxCell>
                <mxCell id="152" value="" style="whiteSpace=wrap;html=1;dashed=1;dashPattern=1 1;sketch=0;strokeColor=#64D1ED;strokeWidth=5;fontSize=16;gradientColor=none;" vertex="1" parent="1">
                    <mxGeometry x="461" y="300" width="170" height="72" as="geometry"/>
                </mxCell>
                <mxCell id="157" style="edgeStyle=none;html=1;strokeWidth=3;fontSize=13;endSize=7;targetPerimeterSpacing=0;startArrow=none;" edge="1" parent="1">
                    <mxGeometry relative="1" as="geometry">
                        <mxPoint x="491" y="230" as="sourcePoint"/>
                        <mxPoint x="481.2862299465239" y="205.00000000000023" as="targetPoint"/>
                        <Array as="points"/>
                    </mxGeometry>
                </mxCell>
                <mxCell id="162" value="" style="edgeStyle=none;html=1;strokeWidth=3;fontSize=13;endSize=7;endArrow=none;" edge="1" parent="1" source="123">
                    <mxGeometry relative="1" as="geometry">
                        <mxPoint x="578.8843103448276" y="199.49999999999955" as="sourcePoint"/>
                        <mxPoint x="509.5" y="239.4484536082473" as="targetPoint"/>
                        <Array as="points">
                            <mxPoint x="579" y="230"/>
                            <mxPoint x="530" y="250"/>
                            <mxPoint x="486" y="230"/>
                        </Array>
                    </mxGeometry>
                </mxCell>
                <mxCell id="165" value="Workload&lt;br&gt;&lt;div style=&quot;&quot;&gt;Profiles&lt;/div&gt;" style="sketch=0;aspect=fixed;html=1;points=[];align=left;image;fontSize=12;image=img/lib/mscae/VM_Scale_Set.svg;dashed=1;dashPattern=1 1;strokeColor=#64D1ED;strokeWidth=12;gradientColor=none;labelPosition=right;verticalLabelPosition=middle;verticalAlign=middle;" vertex="1" parent="1">
                    <mxGeometry x="490" y="311" width="50" height="50" as="geometry"/>
                </mxCell>
                <mxCell id="166" value="Spoke 1" style="text;strokeColor=none;align=center;fillColor=none;html=1;verticalAlign=middle;whiteSpace=wrap;rounded=0;dashed=1;dashPattern=1 1;sketch=0;strokeWidth=12;fontSize=21;fontColor=#000000;fontStyle=1" vertex="1" parent="1">
                    <mxGeometry x="1040" y="10" width="120" height="40" as="geometry"/>
                </mxCell>
                <mxCell id="167" value="Hub" style="text;strokeColor=none;align=center;fillColor=none;html=1;verticalAlign=middle;whiteSpace=wrap;rounded=0;dashed=1;dashPattern=1 1;sketch=0;strokeWidth=12;fontSize=21;fontColor=#000000;fontStyle=1" vertex="1" parent="1">
                    <mxGeometry x="840" y="668" width="120" height="40" as="geometry"/>
                </mxCell>
            </root>
        </mxGraphModel>
    </diagram>
</mxfile>